<?xml version="1.0" ?><svg data-name="Ebene 1" id="Ebene_1" viewBox="0 0 56.69 56.69" xmlns="http://www.w3.org/2000/svg"><title/><path d="M30.54,38a11.84,11.84,0,0,1-4.42-.57A24,24,0,0,1,23,36.26a13.11,13.11,0,0,1-4.44-3.2,8.09,8.09,0,0,1-1.44-2.19,3.53,3.53,0,0,1-.3-1.39.64.64,0,0,1,.6-.61.47.47,0,0,1,.41.2,1.48,1.48,0,0,1,.26.66,5.27,5.27,0,0,0,1.13,2.09,15.68,15.68,0,0,0,3.65,3.08,3.72,3.72,0,0,0,.65.31c.52.21,1.05.38,1.55.63a13,13,0,0,0,3.44,1,10,10,0,0,0,3.11,0,8.66,8.66,0,0,0,2.29-.69c.37-.16.72-.34,1.08-.51a6.22,6.22,0,0,0,2.85-2.81,14.36,14.36,0,0,0,.71-1.78,1.12,1.12,0,0,1,.48-.51.35.35,0,0,1,.45,0,.93.93,0,0,1,.31,1.25,15.29,15.29,0,0,0-1.23,2.05,9.14,9.14,0,0,1-1.19,1.5,3.61,3.61,0,0,1-1.52,1.14c-.89.36-1.72.84-2.64,1.13a6.44,6.44,0,0,1-2.11.39Z"/><path d="M31.79,21.44a4.21,4.21,0,0,1,.13-.75,1.73,1.73,0,0,1,.38-.6,1.08,1.08,0,0,1,1.1-.23,5.75,5.75,0,0,1,1.21.77,1.78,1.78,0,0,1,.52,2,2.28,2.28,0,0,1-.66,1,1,1,0,0,1-.88.27,2,2,0,0,1-1.52-1A2.69,2.69,0,0,1,31.79,21.44Zm2.26.38a.46.46,0,0,0-.45-.4c-.18,0-.28.28-.22.53a.36.36,0,0,0,.28.29A.38.38,0,0,0,34.05,21.82Z"/><path d="M24.17,19.73a2.7,2.7,0,0,1,.09-.46.89.89,0,0,1,.73-.54,1.25,1.25,0,0,1,.47,0,2.3,2.3,0,0,1,1.22.71,1.67,1.67,0,0,1,.47,1.07,4.53,4.53,0,0,1-.06.95,1.54,1.54,0,0,1-1.33,1.2,4.45,4.45,0,0,1-1-.07,1.73,1.73,0,0,1-.64-.29,2.43,2.43,0,0,1-.87-1.12,2,2,0,0,1-.09-.7.88.88,0,0,1,.75-.79,1.33,1.33,0,0,1,.24,0c.05.23.1.46.16.69a1.35,1.35,0,0,0,1.16,1,.36.36,0,0,0,.4-.2.72.72,0,0,0,0-.87,1,1,0,0,0-.56-.41C24.95,19.85,24.56,19.8,24.17,19.73Z"/></svg>