<?xml version="1.0" ?><svg id="Layer_1" style="enable-background:new 0 0 1000 1000;" version="1.1" viewBox="0 0 1000 1000" xml:space="preserve" xmlns="http://www.w3.org/2000/svg" xmlns:xlink="http://www.w3.org/1999/xlink"><style type="text/css">
	.st0{fill:#666666;}
</style><path class="st0" d="M202.9,533.1c8.4,8.4,22.1,8.4,30.6,0l31.5-31.5v298.2c0,11.9,9.7,21.6,21.6,21.6h426.8  c11.9,0,21.6-9.7,21.6-21.6V501.5l31.5,31.5c8.4,8.4,22.1,8.4,30.6,0l111-111c8.4-8.4,8.4-22.1,0-30.6L728.7,212  c-2.5-2.5-5.5-4.3-8.8-5.3l-86.5-27c-6.1-1.9-12.8-1-18.2,2.5c-5.4,3.5-9,9.2-9.7,15.6C599,250.9,553.7,291,500,291  s-99-40.1-105.5-93.3c-0.8-6.4-4.3-12.1-9.7-15.6c-5.4-3.5-12.1-4.4-18.2-2.5l-86.5,27c-3.3,1-6.4,2.9-8.8,5.3L91.9,391.5  c-8.4,8.4-8.4,22.1,0,30.6L202.9,533.1z M356.9,228C375.5,290,433.2,334.2,500,334.2S624.5,290,643.1,228l58.7,18.4l160.4,160.4  l-80.4,80.4l-53.2-53.2c-6.2-6.2-15.5-8-23.6-4.7c-8.1,3.3-13.3,11.2-13.3,20v328.8H308.2V449.3c0-8.7-5.3-16.6-13.3-20  c-8.1-3.3-17.4-1.5-23.6,4.7l-53.2,53.2l-80.4-80.4l160.4-160.4L356.9,228z"/></svg>